<svg fill="#FA5252" xmlns="http://www.w3.org/2000/svg"  viewBox="0 0 24 24" width="96px" height="96px"><path d="M 5.5683594 3 C 4.3133594 3 3.3857344 4.1285625 3.4277344 5.3515625 C 3.4677344 6.5275625 3.4159687 8.0509688 3.0429688 9.2929688 C 2.6679688 10.538969 2.034 10.899 1 11 L 1 13 C 2.034 13.101 2.6679688 13.461031 3.0429688 14.707031 C 3.4159688 15.949031 3.4677344 17.473438 3.4277344 18.648438 C 3.3857344 19.871437 4.3133594 21 5.5683594 21 L 18.431641 21 C 19.686641 21 20.616219 19.871437 20.574219 18.648438 C 20.534219 17.472438 20.585984 15.949031 20.958984 14.707031 C 21.333984 13.461031 21.966 13.101 23 13 L 23 11 C 21.966 10.899 21.334938 10.538969 20.960938 9.2929688 C 20.587937 8.0509688 20.534219 6.5265625 20.574219 5.3515625 C 20.615219 4.1285625 19.687641 3 18.431641 3 L 5.5683594 3 z M 5.5683594 5 L 18.431641 5 C 18.436641 5 18.451422 4.99925 18.482422 5.03125 C 18.528422 5.07825 18.579172 5.1741563 18.576172 5.2851562 C 18.515172 7.0881562 18.671922 8.6311406 19.044922 9.8691406 C 19.318922 10.779141 19.741312 11.488953 20.320312 12.001953 C 19.740313 12.514953 19.318922 13.221812 19.044922 14.132812 C 18.672922 15.370812 18.515172 16.912797 18.576172 18.716797 C 18.580172 18.827797 18.528422 18.922703 18.482422 18.970703 C 18.451422 19.000703 18.437641 19 18.431641 19 L 5.5683594 19 C 5.5633594 19 5.5505313 19.00075 5.5195312 18.96875 C 5.4735312 18.92175 5.4227813 18.826844 5.4257812 18.714844 C 5.4867812 16.910844 5.3270781 15.368859 4.9550781 14.130859 C 4.6820781 13.220859 4.2606406 12.513 3.6816406 12 C 4.2616406 11.487 4.6840313 10.778188 4.9570312 9.8671875 C 5.3290312 8.6291875 5.4867813 7.0872031 5.4257812 5.2832031 C 5.4217812 5.1732031 5.4745312 5.07825 5.5195312 5.03125 C 5.5505312 4.99925 5.5633594 5 5.5683594 5 z M 8 7.0332031 L 8 17 L 12.154297 17 C 13.225297 17 14.120047 16.731609 14.748047 16.224609 C 15.391047 15.701609 15.732422 14.946016 15.732422 14.041016 C 15.732422 12.958016 15.133781 12.083828 14.175781 11.673828 C 14.824781 11.239828 15.263672 10.483688 15.263672 9.6796875 C 15.263672 8.8896875 14.957906 8.2192344 14.378906 7.7402344 C 13.819906 7.2772344 13.041766 7.0332031 12.134766 7.0332031 L 8 7.0332031 z M 10.126953 8.9511719 L 11.777344 8.9511719 C 12.679344 8.9511719 13.136719 9.2936562 13.136719 9.9726562 C 13.136719 10.898656 12.228797 11.09375 11.466797 11.09375 L 10.126953 11.09375 L 10.126953 8.9511719 z M 10.125 12.839844 L 11.763672 12.839844 C 13.386672 12.839844 13.574219 13.527922 13.574219 14.044922 C 13.574219 14.347922 13.574609 15.267578 11.849609 15.267578 L 10.125 15.267578 L 10.125 12.839844 z"/></svg>